<svg width="700" height="700" xmlns="http://www.w3.org/2000/svg">
 <title>red cross</title>

 <g>
  <title>background</title>
  <rect fill="none" id="canvas_background" height="702" width="702" y="-1" x="-1"/>
 </g>
 <g>
  <title>Layer 1</title>
  <g id="layer1">
   <path d="m596.556369,502.373492c-7.008,0 -14.56745,-2.9541 -16.79914,-6.56439c-2.23108,-3.61066 -6.83618,-6.56476 -10.23388,-6.56476c-3.39765,0 -6.17719,2.9541 -6.17719,6.56476c0,3.61029 4.2569,6.56439 9.45972,6.56439c19.47754,0 16.45916,12.84424 -4.30194,18.31152c-23.96283,6.30915 -46.35364,3.05524 -40.80103,-5.9292c1.97791,-3.19989 0.46765,-5.81762 -3.35596,-5.81762c-3.82324,0 -6.9519,4.7995 -6.9519,10.66742c0,8.53534 -4.26294,9.81219 -21.33484,6.38983c-95.13855,-19.07477 -102.99472,-15.00012 -128.86151,66.83539c-7.80716,24.69952 -24.11609,43.41748 -33.03012,37.90875c-3.34711,-2.06903 -10.54367,0.69684 -15.99301,6.14551c-5.4487,5.44928 -11.90772,9.90753 -14.353,9.90753c-4.32873,0 -1.33291,-71.6037 5.50266,-131.50696l3.39553,-29.75586l-66.07672,-32.60632c-118.94601,-58.69516 -155.94146,-86.65866 -155.94146,-117.87329c0,-17.13462 3.91653,-22.48337 23.19875,-31.67829c40.65511,-19.38702 49.80283,-16.70324 147.24378,43.19297c26.94892,16.56582 50.92121,28.93173 53.27146,27.47909c5.54742,-3.42843 18.27804,-68.45193 22.42791,-114.55639c5.17911,-57.53803 18.23358,-129.64539 30.7171,-169.67165c12.39789,-39.75237 75.87397,-50.67233 87.19581,-15.00073c2.27224,7.15887 -0.63248,40.46959 -6.45438,74.02434c-5.82169,33.5545 -13.57275,84.73196 -17.22424,113.72735c-3.65174,28.99509 -8.49723,66.01184 -10.76731,82.25867c-2.2695,16.24737 -4.24862,41.35611 -4.39642,55.7984c-0.24432,23.78006 1.97977,27.35837 23.5705,37.91489c22.41089,10.95898 73.81839,27.32336 110.73153,35.25024c19.42603,4.1712 59.08033,21.36072 59.08033,25.60992c0,1.63605 -5.73328,2.97449 -12.74103,2.97449z" id="path13" fill="#3f7f00"/>
  </g>
 </g>
</svg>